<svg width="256" height="256" viewBox="0 0 256 256" fill="none" xmlns="http://www.w3.org/2000/svg">
  <defs>
    <linearGradient id="bg" x1="32" y1="24" x2="224" y2="232" gradientUnits="userSpaceOnUse">
      <stop offset="0" stop-color="#0B0F18" />
      <stop offset="0.55" stop-color="#131A29" />
      <stop offset="1" stop-color="#1C2438" />
    </linearGradient>
    <linearGradient id="accent" x1="58" y1="54" x2="198" y2="202" gradientUnits="userSpaceOnUse">
      <stop offset="0" stop-color="#FFD20D" />
      <stop offset="0.2" stop-color="#FAA312" />
      <stop offset="0.46" stop-color="#ECE25B" />
      <stop offset="0.7" stop-color="#2F9DE5" />
      <stop offset="1" stop-color="#0D63D4" />
    </linearGradient>
    <linearGradient id="accent2" x1="77" y1="64" x2="176" y2="185" gradientUnits="userSpaceOnUse">
      <stop offset="0" stop-color="#F57F17" />
      <stop offset="1" stop-color="#FFE019" />
    </linearGradient>
  </defs>

  <rect x="20" y="20" width="216" height="216" rx="56" fill="url(#bg)" />
  <path
    d="M182.553 77.809C171.026 63.664 152.829 56 128.07 56C102.884 56 83.7856 63.8794 70.3348 79.3494C60.5653 90.5865 55.68 102.64 55.68 115.509C55.68 128.377 59.9312 138.245 68.4335 145.112C76.9359 151.98 89.0689 157.446 104.833 161.511L127.43 167.304C136.359 169.588 142.823 172.157 146.821 175.009C150.819 177.719 152.819 181.57 152.819 186.561C152.819 191.979 150.534 196.187 145.965 199.186C141.395 202.038 135.002 203.464 126.787 203.464C117.287 203.464 109.283 201.609 102.776 197.9C96.4118 194.192 91.7708 188.56 88.8528 181.003L52 192.995C56.7124 206.149 64.7866 216.338 76.2227 223.563C89.1949 231.358 105.529 235.256 125.216 235.256C149.976 235.256 169.217 229.352 182.938 217.545C196.658 205.737 203.518 190.481 203.518 171.775C203.518 158.05 199.306 147.006 190.883 138.642C182.458 130.136 169.17 123.696 151.017 119.321L128.348 113.884C119.562 111.743 113.385 109.211 109.816 106.289C106.245 103.22 104.461 99.2621 104.461 94.4113C104.461 89.5612 106.638 85.6384 110.992 82.643C115.49 79.5035 121.56 77.9344 129.204 77.9344C136.705 77.9344 142.962 79.5391 147.976 82.7493C152.989 85.817 157.17 90.5231 160.519 96.8677L182.553 77.809Z"
    fill="url(#accent)"
  />
  <path
    d="M161.76 63.4375C173.197 68.9049 181.645 76.5314 187.105 86.3172L160.519 96.8679C157.17 90.5232 152.989 85.8171 147.976 82.7495C145.757 81.3294 143.253 80.1913 140.466 79.3351C145.514 73.7734 152.612 68.4742 161.76 63.4375Z"
    fill="url(#accent2)"
    opacity="0.95"
  />
</svg>
