<svg width="1200" height="720" viewBox="0 0 1200 720" fill="none" xmlns="http://www.w3.org/2000/svg">
  <rect width="1200" height="720" rx="32" fill="#020617"/>
  <rect x="60" y="44" width="1080" height="56" rx="18" fill="#111827"/>
  <rect x="96" y="62" width="170" height="18" rx="9" fill="#F8FAFC"/>
  <rect x="830" y="62" width="88" height="14" rx="7" fill="#CBD5E1"/>
  <rect x="942" y="62" width="88" height="14" rx="7" fill="#CBD5E1"/>
  <rect x="1042" y="56" width="66" height="28" rx="14" fill="#34D399"/>
  <rect x="90" y="146" width="1020" height="222" rx="32" fill="#0F172A"/>
  <rect x="126" y="182" width="190" height="18" rx="9" fill="#34D399"/>
  <rect x="126" y="220" width="610" height="46" rx="18" fill="#FFFFFF"/>
  <rect x="126" y="282" width="470" height="18" rx="9" fill="#CBD5E1"/>
  <rect x="126" y="316" width="406" height="18" rx="9" fill="#94A3B8"/>
  <rect x="820" y="186" width="248" height="140" rx="24" fill="#111827"/>
  <rect x="842" y="210" width="204" height="20" rx="10" fill="#34D399"/>
  <rect x="842" y="248" width="144" height="14" rx="7" fill="#F8FAFC"/>
  <rect x="842" y="278" width="180" height="14" rx="7" fill="#CBD5E1"/>
  <rect x="90" y="410" width="312" height="230" rx="28" fill="#0F172A"/>
  <rect x="444" y="410" width="312" height="230" rx="28" fill="#0F172A"/>
  <rect x="798" y="410" width="312" height="230" rx="28" fill="#0F172A"/>
  <rect x="124" y="444" width="244" height="20" rx="10" fill="#F8FAFC"/>
  <rect x="478" y="444" width="244" height="20" rx="10" fill="#F8FAFC"/>
  <rect x="832" y="444" width="244" height="20" rx="10" fill="#F8FAFC"/>
  <rect x="124" y="492" width="204" height="12" rx="6" fill="#CBD5E1"/>
  <rect x="478" y="492" width="204" height="12" rx="6" fill="#CBD5E1"/>
  <rect x="832" y="492" width="204" height="12" rx="6" fill="#CBD5E1"/>
  <rect x="124" y="526" width="126" height="36" rx="18" fill="#34D399"/>
  <rect x="478" y="526" width="126" height="36" rx="18" fill="#34D399"/>
  <rect x="832" y="526" width="126" height="36" rx="18" fill="#34D399"/>
</svg>
