<svg width="1200" height="720" viewBox="0 0 1200 720" fill="none" xmlns="http://www.w3.org/2000/svg">
  <rect width="1200" height="720" rx="32" fill="#F5F5F4"/>
  <rect x="60" y="44" width="1080" height="56" rx="18" fill="#FAFAF9"/>
  <rect x="96" y="62" width="186" height="18" rx="9" fill="#18181B"/>
  <rect x="832" y="62" width="88" height="14" rx="7" fill="#52525B"/>
  <rect x="942" y="62" width="88" height="14" rx="7" fill="#52525B"/>
  <rect x="1050" y="56" width="54" height="28" rx="14" fill="#B91C1C"/>
  <rect x="90" y="146" width="1020" height="244" rx="32" fill="#FFFFFF"/>
  <rect x="130" y="184" width="122" height="18" rx="9" fill="#B91C1C"/>
  <rect x="130" y="222" width="700" height="52" rx="18" fill="#18181B"/>
  <rect x="130" y="288" width="528" height="18" rx="9" fill="#52525B"/>
  <rect x="130" y="322" width="452" height="18" rx="9" fill="#71717A"/>
  <rect x="862" y="184" width="210" height="166" rx="24" fill="#D6D3D1"/>
  <rect x="90" y="426" width="486" height="222" rx="28" fill="#FFFFFF"/>
  <rect x="624" y="426" width="486" height="222" rx="28" fill="#FFFFFF"/>
  <rect x="124" y="460" width="418" height="94" rx="20" fill="#E7E5E4"/>
  <rect x="658" y="460" width="418" height="94" rx="20" fill="#E7E5E4"/>
  <rect x="124" y="576" width="214" height="20" rx="10" fill="#18181B"/>
  <rect x="658" y="576" width="214" height="20" rx="10" fill="#18181B"/>
  <rect x="124" y="608" width="174" height="14" rx="7" fill="#52525B"/>
  <rect x="658" y="608" width="174" height="14" rx="7" fill="#52525B"/>
</svg>
