<svg width="1200" height="720" viewBox="0 0 1200 720" fill="none" xmlns="http://www.w3.org/2000/svg">
  <rect width="1200" height="720" rx="32" fill="#FAFAF9"/>
  <rect x="60" y="44" width="1080" height="56" rx="18" fill="#FAFAF9"/>
  <rect x="96" y="62" width="144" height="18" rx="9" fill="#1C1917"/>
  <rect x="892" y="62" width="78" height="14" rx="7" fill="#78716C"/>
  <rect x="990" y="62" width="78" height="14" rx="7" fill="#78716C"/>
  <rect x="90" y="146" width="1020" height="220" rx="32" fill="#F5F5F4"/>
  <rect x="128" y="196" width="420" height="42" rx="16" fill="#1C1917"/>
  <rect x="128" y="258" width="354" height="16" rx="8" fill="#78716C"/>
  <rect x="128" y="290" width="300" height="16" rx="8" fill="#A8A29E"/>
  <rect x="128" y="344" width="132" height="40" rx="20" fill="#1C1917"/>
  <rect x="90" y="412" width="1020" height="236" rx="32" fill="#FAFAF9"/>
  <rect x="128" y="450" width="200" height="20" rx="10" fill="#1C1917"/>
  <rect x="128" y="504" width="430" height="1.5" fill="#D6D3D1"/>
  <rect x="128" y="540" width="430" height="1.5" fill="#D6D3D1"/>
  <rect x="128" y="576" width="430" height="1.5" fill="#D6D3D1"/>
  <rect x="704" y="470" width="280" height="140" rx="24" fill="#FFFFFF"/>
  <rect x="734" y="502" width="180" height="16" rx="8" fill="#1C1917"/>
  <rect x="734" y="534" width="140" height="12" rx="6" fill="#78716C"/>
</svg>
