<svg version="1.1" id="Layer_1" xmlns="http://www.w3.org/2000/svg" xmlns:xlink="http://www.w3.org/1999/xlink" x="0px" y="0px"
	 width="100%" viewBox="244.5 204.75 507.5 194.0" enable-background="new 244.5 204.75 507.5 194.0" xml:space="preserve">
<defs>
  <linearGradient id="grad-black-s" x1="0%" y1="0%" x2="100%" y2="100%">
    <stop offset="0%" stop-color="#0b0f18"/>
    <stop offset="55%" stop-color="#131a29"/>
    <stop offset="100%" stop-color="#1c2438"/>
  </linearGradient>

  <linearGradient id="grad-orange-w" x1="0%" y1="100%" x2="100%" y2="0%">
    <stop offset="0%" stop-color="#f05e14"/>
    <stop offset="25%" stop-color="#f57f17"/>
    <stop offset="60%" stop-color="#faa312"/>
    <stop offset="100%" stop-color="#ffd20d"/>
  </linearGradient>

  <linearGradient id="grad-swoosh" x1="0%" y1="85%" x2="100%" y2="15%">
    <stop offset="0%" stop-color="#f2b400"/>
    <stop offset="18%" stop-color="#f7c700"/>
    <stop offset="40%" stop-color="#ece25b"/>
    <stop offset="58%" stop-color="#8bc8be"/>
    <stop offset="76%" stop-color="#2f9de5"/>
    <stop offset="100%" stop-color="#0d63d4"/>
  </linearGradient>

  <linearGradient id="grad-blue" x1="0%" y1="0%" x2="100%" y2="100%">
    <stop offset="0%" stop-color="#1395ee"/>
    <stop offset="35%" stop-color="#0c7fdc"/>
    <stop offset="70%" stop-color="#0e68c8"/>
    <stop offset="100%" stop-color="#1749aa"/>
  </linearGradient>

  <linearGradient id="grad-orange-i" x1="0%" y1="100%" x2="100%" y2="0%">
    <stop offset="0%" stop-color="#f37d12"/>
    <stop offset="45%" stop-color="#f9b20f"/>
    <stop offset="100%" stop-color="#ffe00d"/>
  </linearGradient>

  <linearGradient id="grad-dot" x1="0%" y1="100%" x2="100%" y2="0%">
    <stop offset="0%" stop-color="#f6bf07"/>
    <stop offset="100%" stop-color="#ffe019"/>
  </linearGradient>
</defs>

<path fill="url(#grad-blue)" opacity="1.000000" stroke="none" d="
M663.158142,336.147400 
	C652.941833,349.837555 648.297302,365.086487 648.299011,381.651794 
	C648.299561,386.620331 646.447083,388.558685 641.958618,389.200531 
	C637.667786,389.814148 633.402954,390.455841 629.045532,390.246582 
	C620.180359,389.820801 616.074646,385.727356 615.728333,376.819122 
	C615.290405,365.557800 617.849121,354.685913 620.086121,343.776062 
	C624.426208,322.609497 630.029419,301.699768 633.213745,280.301361 
	C634.433777,272.102936 635.865479,263.837128 633.855591,255.534851 
	C633.270569,253.118240 634.486877,252.208054 636.556396,251.710114 
	C644.817200,249.722397 653.057678,249.510941 661.111511,252.478760 
	C667.885986,254.975113 670.698853,260.769196 669.739197,269.159271 
	C668.221436,282.428741 664.837646,295.288086 661.301453,308.117401 
	C660.732300,310.182404 660.182373,312.252686 659.269653,315.630035 
	C663.289856,311.779114 666.266541,308.599915 669.578674,305.820404 
	C677.523010,299.153351 686.212036,294.272278 697.113403,294.645477 
	C709.123108,295.056671 716.662781,302.310669 717.296082,314.300110 
	C717.829468,324.396484 715.715271,334.150757 713.764648,343.947479 
	C712.792358,348.830963 711.750854,353.757324 711.461914,358.706390 
	C711.068237,365.450165 715.077271,368.113464 721.435120,365.871460 
	C725.835693,364.319641 729.016296,361.190277 732.052185,357.812012 
	C733.677368,356.003601 734.687744,353.577423 737.398926,352.285797 
	C739.506470,355.482025 739.539673,358.717163 738.604553,362.207123 
	C734.450134,377.711823 717.518494,391.189362 700.522522,392.264130 
	C696.377563,392.526245 692.189209,392.508514 688.042664,392.257874 
	C677.640198,391.629181 671.052612,384.427643 670.637695,374.047699 
	C670.185364,362.731293 673.987854,352.060547 675.209351,341.008728 
	C675.318726,340.018890 675.574829,339.037140 675.599365,338.047577 
	C675.659302,335.630493 675.268982,333.309387 672.945618,331.979431 
	C670.699768,330.693817 668.734741,331.985809 666.899536,333.079254 
	C665.628784,333.836395 664.568054,334.946106 663.158142,336.147400 
z"/>
<path fill="url(#grad-orange-w)" opacity="1.000000" stroke="none" d="
M395.143097,383.183533 
	C387.292633,390.254272 378.493958,394.240295 368.202393,394.201752 
	C357.136780,394.160309 350.069153,387.695343 348.680450,376.781403 
	C347.047089,363.944366 350.245544,351.707275 353.210571,339.417633 
	C356.009583,327.816132 359.821350,316.365387 359.065186,304.168335 
	C358.936646,302.094452 360.098328,301.182098 361.941559,300.760529 
	C370.220428,298.867004 378.159668,299.761566 385.660034,303.777740 
	C388.874359,305.498932 390.265411,308.339172 390.318634,312.012695 
	C390.461670,321.886902 387.019531,330.948151 384.100159,340.125366 
	C381.985107,346.774200 379.397156,353.303772 379.253265,360.411011 
	C379.216583,362.221832 379.048615,364.234161 381.055847,365.248779 
	C383.180023,366.322601 384.908295,365.256256 386.499512,363.913849 
	C389.728088,361.190033 392.165466,357.829987 394.203125,354.170135 
	C400.474152,342.906647 405.279938,331.065765 407.737396,318.379089 
	C408.432648,314.789734 410.293396,312.748657 413.695648,311.889832 
	C419.526794,310.417847 425.403412,309.397980 431.465485,309.754730 
	C438.673309,310.178864 441.162872,312.886078 440.080322,319.956573 
	C438.898865,327.672791 437.284912,335.321838 436.001526,343.023834 
	C435.129883,348.254883 434.190857,353.519745 434.816193,358.851898 
	C435.082031,361.118439 435.271545,363.829834 438.070343,364.502106 
	C440.872192,365.175079 442.813751,363.314301 444.354797,361.272858 
	C452.600983,350.348755 456.247864,337.633881 458.667297,324.425842 
	C459.663300,318.988495 460.052216,313.530609 459.743927,308.032257 
	C459.596710,305.405853 460.313171,303.425995 462.878052,302.449249 
	C469.267639,300.015900 475.756531,298.037140 482.665619,297.674957 
	C487.177216,297.438446 489.365265,299.751495 490.357788,303.835602 
	C492.389374,312.195099 490.907654,320.421326 489.253815,328.567902 
	C485.171112,348.678558 477.495758,367.069550 462.293121,381.503235 
	C452.718323,390.593719 441.226624,395.417999 427.940918,395.203186 
	C416.001953,395.010132 409.043335,389.444794 405.780792,378.069214 
	C405.470215,376.986206 405.598328,375.700348 403.848816,374.952515 
	C401.130707,377.533875 398.274963,380.245911 395.143097,383.183533 
z"/>
<path fill="url(#grad-swoosh)" opacity="1.000000" stroke="none" d="
M733.717834,276.139160 
	C733.076111,266.616577 727.510864,260.836487 720.259399,256.477203 
	C709.065857,249.748138 696.647278,246.649277 683.791931,245.318314 
	C640.618286,240.848450 598.877075,248.638016 557.744080,260.699768 
	C518.408936,272.234344 480.299530,287.303040 441.984222,301.754700 
	C439.268860,302.778931 439.293243,302.843567 436.498840,302.647705 
	C436.517426,301.189850 437.770142,300.780121 438.693909,300.197052 
	C463.055206,284.820465 487.677338,269.893585 513.839478,257.714142 
	C517.565552,255.979507 518.593384,254.143127 516.970764,250.054840 
	C513.543701,241.420364 507.881256,235.472870 498.978851,232.662872 
	C497.584503,232.222778 496.263184,231.551437 494.464203,230.324173 
	C507.664337,226.922226 515.664795,218.486359 519.479858,205.356430 
	C523.747314,218.208389 531.046387,227.224106 544.891541,230.028412 
	C536.872375,233.894409 528.865845,236.662018 524.859741,244.803284 
	C523.753052,247.052368 522.615173,249.246979 523.130798,252.228973 
	C528.271179,251.886627 532.464111,249.016739 536.903381,247.112854 
	C573.208252,231.542755 610.750488,220.327515 650.081360,216.097687 
	C673.837585,213.542816 697.670959,213.408340 720.668762,221.682953 
	C729.371887,224.814346 737.451233,229.099182 743.483643,236.410370 
	C752.002930,246.735535 753.621826,258.114227 748.629944,270.530609 
	C744.624573,280.493347 737.314148,287.442657 728.295959,293.130432 
	C730.392090,287.628143 734.097046,282.735870 733.717834,276.139160 
z"/>
<path fill="url(#grad-black-s)" opacity="1.000000" stroke="none" d="
M284.289795,348.838745 
	C280.472412,346.700256 277.106293,344.561981 274.139313,341.835297 
	C262.671814,331.296631 261.941010,315.641815 272.435181,303.931519 
	C283.765045,291.288788 298.727325,286.969635 314.917114,285.792816 
	C323.486237,285.169922 331.895386,286.448120 339.839325,289.846130 
	C345.281189,292.173889 349.729767,295.351746 349.376160,302.350708 
	C349.044250,308.920258 344.408722,316.052948 338.417786,318.367981 
	C336.207123,316.589233 335.907440,313.472260 333.767212,311.504517 
	C328.304077,306.481750 315.410461,305.441467 309.346436,309.756073 
	C305.287140,312.644287 304.903198,317.390381 308.981293,320.755737 
	C312.162079,323.380615 315.934052,325.293488 319.463440,327.490356 
	C323.279053,329.865417 327.242920,332.023651 330.925354,334.587738 
	C346.867340,345.687988 348.834595,364.575836 335.777679,379.101257 
	C326.523590,389.396149 314.621307,394.411560 301.345856,396.765015 
	C286.167816,399.455811 271.468781,398.131500 257.646240,390.903870 
	C244.557968,384.060150 241.559753,371.632812 249.863037,359.451263 
	C253.207581,354.544586 254.608505,354.469208 258.296204,358.983551 
	C267.540222,370.299774 279.528046,375.721771 294.080597,375.698944 
	C297.142609,375.694153 300.000885,374.919464 302.814636,373.838745 
	C306.115143,372.571045 308.787018,370.560089 309.225922,366.853790 
	C309.677185,363.043213 307.250885,360.514496 304.248169,358.869690 
	C298.997406,355.993469 293.553802,353.469421 288.190735,350.798309 
	C286.998047,350.204315 285.804291,349.612549 284.289795,348.838745 
z"/>
<path fill="url(#grad-blue)" opacity="1.000000" stroke="none" d="
M602.590271,315.428192 
	C596.752319,309.454956 586.676636,307.669800 579.795776,311.111877 
	C574.553711,313.734161 573.919678,318.412354 578.354675,322.248840 
	C581.010742,324.546448 584.071350,326.233521 587.157959,327.901733 
	C591.107483,330.036316 595.014282,332.272797 598.798401,334.686584 
	C617.716675,346.754028 614.362183,366.548798 602.374146,378.526062 
	C591.454773,389.435608 577.401794,392.536896 562.495056,392.590057 
	C553.110718,392.623535 543.851562,391.784973 535.409790,387.095306 
	C524.106262,380.815887 521.812378,369.530762 529.721680,359.256439 
	C530.441284,358.321747 531.180847,357.430176 533.194092,357.049286 
	C537.452881,362.362122 543.019531,366.718536 549.816650,369.375732 
	C557.100342,372.223114 564.504944,373.630920 572.259399,371.714935 
	C573.540405,371.398468 574.845093,371.010345 576.005371,370.401123 
	C581.301758,367.620026 581.701538,363.558105 576.987915,359.922760 
	C573.666016,357.360779 569.752686,355.840820 565.954041,354.147247 
	C560.327454,351.638824 554.657532,349.223541 549.665588,345.512909 
	C536.723633,335.892944 534.761902,318.891083 545.106079,306.457916 
	C554.119141,295.624664 566.234497,291.046753 579.715576,289.853241 
	C588.492310,289.076141 597.391724,289.187622 605.762573,292.818268 
	C610.907043,295.049591 615.370300,298.145508 615.130859,304.440857 
	C614.876526,311.127869 611.432556,316.204712 606.325317,319.919800 
	C603.875366,318.951294 603.734131,317.044739 602.590271,315.428192 
z"/>
<path fill="url(#grad-orange-i)" opacity="1.000000" stroke="none" d="
M497.720276,332.821167 
	C499.407318,326.139374 501.279968,319.878906 500.683472,313.295837 
	C500.367706,309.810791 502.236847,308.371674 505.194214,307.991241 
	C510.124176,307.356995 515.021179,306.497742 520.072205,307.387451 
	C529.072388,308.972748 532.349243,313.319519 530.873108,322.411865 
	C529.057129,333.597198 525.435242,344.310120 522.294189,355.153320 
	C520.541077,361.205414 519.110352,367.355133 517.677979,373.494385 
	C516.825500,377.148346 517.162476,380.826111 518.726868,384.236938 
	C520.006042,387.025909 519.367004,388.559326 516.436890,389.464996 
	C510.168701,391.402466 503.872253,392.646637 497.302673,391.210815 
	C490.928986,389.817780 488.031036,386.359741 487.571442,379.792542 
	C486.820129,369.057251 490.761139,359.200775 493.245056,349.078156 
	C494.551331,343.754791 496.159790,338.505615 497.720276,332.821167 
z"/>
<path fill="url(#grad-dot)" opacity="1.000000" stroke="none" d="
M514.005127,281.897217 
	C520.480225,280.133118 526.615112,278.661774 532.597473,276.720337 
	C536.489746,275.457123 537.717285,277.109375 538.231262,280.494995 
	C539.621948,289.655487 534.627380,296.990540 524.852234,299.691345 
	C519.982788,301.036743 514.996704,300.978485 510.085083,299.750336 
	C505.633179,298.637146 503.259155,295.886749 503.676758,291.096252 
	C504.064453,286.648529 505.182312,282.863037 510.686493,282.626251 
	C511.665070,282.584106 512.629395,282.210876 514.005127,281.897217 
z"/>
</svg>